<mxfile host="app.diagrams.net" modified="2023-06-07T02:17:35.277Z" agent="Mozilla/5.0 (Windows NT 10.0; Win64; x64) AppleWebKit/537.36 (KHTML, like Gecko) Chrome/114.0.0.0 Safari/537.36" etag="ToUqMYzNbgzJNEuDj-BK" version="21.3.7" type="device">
  <diagram name="Página-1" id="gEmb2_LAdrs3aQMG2clk">
    <mxGraphModel dx="954" dy="584" grid="1" gridSize="10" guides="1" tooltips="1" connect="1" arrows="1" fold="1" page="1" pageScale="1" pageWidth="827" pageHeight="1169" math="0" shadow="0">
      <root>
        <mxCell id="0" />
        <mxCell id="1" parent="0" />
        <mxCell id="ley4W7D45iyjQkISpa2F-6" value="" style="edgeStyle=orthogonalEdgeStyle;rounded=0;orthogonalLoop=1;jettySize=auto;html=1;" parent="1" source="ley4W7D45iyjQkISpa2F-1" target="ley4W7D45iyjQkISpa2F-2" edge="1">
          <mxGeometry relative="1" as="geometry" />
        </mxCell>
        <mxCell id="ley4W7D45iyjQkISpa2F-1" value="inicio" style="ellipse;whiteSpace=wrap;html=1;" parent="1" vertex="1">
          <mxGeometry x="100" y="50" width="120" height="80" as="geometry" />
        </mxCell>
        <mxCell id="ley4W7D45iyjQkISpa2F-7" value="" style="edgeStyle=orthogonalEdgeStyle;rounded=0;orthogonalLoop=1;jettySize=auto;html=1;" parent="1" source="ley4W7D45iyjQkISpa2F-2" target="ley4W7D45iyjQkISpa2F-3" edge="1">
          <mxGeometry relative="1" as="geometry" />
        </mxCell>
        <mxCell id="ley4W7D45iyjQkISpa2F-2" value="String nombre&lt;br/&gt;Int clave&lt;br/&gt;Int antiguedad" style="rounded=0;whiteSpace=wrap;html=1;" parent="1" vertex="1">
          <mxGeometry x="100" y="170" width="120" height="60" as="geometry" />
        </mxCell>
        <mxCell id="ley4W7D45iyjQkISpa2F-8" value="" style="edgeStyle=orthogonalEdgeStyle;rounded=0;orthogonalLoop=1;jettySize=auto;html=1;" parent="1" source="ley4W7D45iyjQkISpa2F-3" target="ley4W7D45iyjQkISpa2F-4" edge="1">
          <mxGeometry relative="1" as="geometry" />
        </mxCell>
        <mxCell id="ley4W7D45iyjQkISpa2F-3" value="&quot;Bienvenido al sistema&quot;" style="shape=document;whiteSpace=wrap;html=1;boundedLbl=1;" parent="1" vertex="1">
          <mxGeometry x="100" y="290" width="120" height="80" as="geometry" />
        </mxCell>
        <mxCell id="ley4W7D45iyjQkISpa2F-9" value="" style="edgeStyle=orthogonalEdgeStyle;rounded=0;orthogonalLoop=1;jettySize=auto;html=1;" parent="1" source="ley4W7D45iyjQkISpa2F-4" target="ley4W7D45iyjQkISpa2F-5" edge="1">
          <mxGeometry relative="1" as="geometry" />
        </mxCell>
        <mxCell id="ley4W7D45iyjQkISpa2F-4" value="&quot;¿Cuál es el nombre del&lt;br/&gt;trabajador?&quot;" style="shape=document;whiteSpace=wrap;html=1;boundedLbl=1;" parent="1" vertex="1">
          <mxGeometry x="100" y="420" width="120" height="80" as="geometry" />
        </mxCell>
        <mxCell id="ley4W7D45iyjQkISpa2F-11" value="" style="edgeStyle=orthogonalEdgeStyle;rounded=0;orthogonalLoop=1;jettySize=auto;html=1;" parent="1" source="ley4W7D45iyjQkISpa2F-5" target="ley4W7D45iyjQkISpa2F-10" edge="1">
          <mxGeometry relative="1" as="geometry" />
        </mxCell>
        <mxCell id="ley4W7D45iyjQkISpa2F-5" value="nombre" style="shape=parallelogram;perimeter=parallelogramPerimeter;whiteSpace=wrap;html=1;fixedSize=1;" parent="1" vertex="1">
          <mxGeometry x="100" y="550" width="120" height="60" as="geometry" />
        </mxCell>
        <mxCell id="ley4W7D45iyjQkISpa2F-10" value="1" style="ellipse;whiteSpace=wrap;html=1;aspect=fixed;" parent="1" vertex="1">
          <mxGeometry x="120" y="670" width="80" height="80" as="geometry" />
        </mxCell>
        <mxCell id="ley4W7D45iyjQkISpa2F-16" value="" style="edgeStyle=orthogonalEdgeStyle;rounded=0;orthogonalLoop=1;jettySize=auto;html=1;" parent="1" source="ley4W7D45iyjQkISpa2F-12" target="ley4W7D45iyjQkISpa2F-13" edge="1">
          <mxGeometry relative="1" as="geometry" />
        </mxCell>
        <mxCell id="ley4W7D45iyjQkISpa2F-12" value="1" style="ellipse;whiteSpace=wrap;html=1;aspect=fixed;" parent="1" vertex="1">
          <mxGeometry x="620" y="40" width="80" height="80" as="geometry" />
        </mxCell>
        <mxCell id="ley4W7D45iyjQkISpa2F-15" value="" style="edgeStyle=orthogonalEdgeStyle;rounded=0;orthogonalLoop=1;jettySize=auto;html=1;" parent="1" source="ley4W7D45iyjQkISpa2F-13" target="ley4W7D45iyjQkISpa2F-14" edge="1">
          <mxGeometry relative="1" as="geometry" />
        </mxCell>
        <mxCell id="ley4W7D45iyjQkISpa2F-13" value="&quot;¿Cuántos años de servicio tiene el&lt;br/&gt;trabajador?&quot;" style="shape=document;whiteSpace=wrap;html=1;boundedLbl=1;" parent="1" vertex="1">
          <mxGeometry x="600" y="170" width="120" height="80" as="geometry" />
        </mxCell>
        <mxCell id="ley4W7D45iyjQkISpa2F-40" value="" style="edgeStyle=orthogonalEdgeStyle;rounded=0;orthogonalLoop=1;jettySize=auto;html=1;" parent="1" source="ley4W7D45iyjQkISpa2F-14" target="ley4W7D45iyjQkISpa2F-17" edge="1">
          <mxGeometry relative="1" as="geometry" />
        </mxCell>
        <mxCell id="ley4W7D45iyjQkISpa2F-14" value="antiguedad" style="shape=parallelogram;perimeter=parallelogramPerimeter;whiteSpace=wrap;html=1;fixedSize=1;" parent="1" vertex="1">
          <mxGeometry x="590" y="300" width="120" height="60" as="geometry" />
        </mxCell>
        <mxCell id="ley4W7D45iyjQkISpa2F-41" value="" style="edgeStyle=orthogonalEdgeStyle;rounded=0;orthogonalLoop=1;jettySize=auto;html=1;" parent="1" source="ley4W7D45iyjQkISpa2F-17" target="ley4W7D45iyjQkISpa2F-18" edge="1">
          <mxGeometry relative="1" as="geometry" />
        </mxCell>
        <mxCell id="ley4W7D45iyjQkISpa2F-17" value="&quot;¿Cuál es la clave de su&lt;br/&gt;departamento?&quot;" style="shape=document;whiteSpace=wrap;html=1;boundedLbl=1;" parent="1" vertex="1">
          <mxGeometry x="600" y="420" width="120" height="80" as="geometry" />
        </mxCell>
        <mxCell id="ley4W7D45iyjQkISpa2F-20" style="edgeStyle=orthogonalEdgeStyle;rounded=0;orthogonalLoop=1;jettySize=auto;html=1;" parent="1" source="ley4W7D45iyjQkISpa2F-18" target="ley4W7D45iyjQkISpa2F-19" edge="1">
          <mxGeometry relative="1" as="geometry" />
        </mxCell>
        <mxCell id="ley4W7D45iyjQkISpa2F-21" value="SI" style="edgeLabel;html=1;align=center;verticalAlign=middle;resizable=0;points=[];" parent="ley4W7D45iyjQkISpa2F-20" vertex="1" connectable="0">
          <mxGeometry x="-0.5072" y="-1" relative="1" as="geometry">
            <mxPoint as="offset" />
          </mxGeometry>
        </mxCell>
        <mxCell id="ley4W7D45iyjQkISpa2F-61" style="edgeStyle=orthogonalEdgeStyle;rounded=0;orthogonalLoop=1;jettySize=auto;html=1;" parent="1" source="ley4W7D45iyjQkISpa2F-18" target="ley4W7D45iyjQkISpa2F-63" edge="1">
          <mxGeometry relative="1" as="geometry">
            <mxPoint x="1610" y="670" as="targetPoint" />
          </mxGeometry>
        </mxCell>
        <mxCell id="ley4W7D45iyjQkISpa2F-62" value="NO" style="edgeLabel;html=1;align=center;verticalAlign=middle;resizable=0;points=[];" parent="ley4W7D45iyjQkISpa2F-61" vertex="1" connectable="0">
          <mxGeometry x="-0.4967" y="-1" relative="1" as="geometry">
            <mxPoint as="offset" />
          </mxGeometry>
        </mxCell>
        <mxCell id="ley4W7D45iyjQkISpa2F-18" value="clave==1" style="rhombus;whiteSpace=wrap;html=1;" parent="1" vertex="1">
          <mxGeometry x="620" y="560" width="80" height="80" as="geometry" />
        </mxCell>
        <mxCell id="ley4W7D45iyjQkISpa2F-23" style="edgeStyle=orthogonalEdgeStyle;rounded=0;orthogonalLoop=1;jettySize=auto;html=1;" parent="1" source="ley4W7D45iyjQkISpa2F-19" target="ley4W7D45iyjQkISpa2F-22" edge="1">
          <mxGeometry relative="1" as="geometry" />
        </mxCell>
        <mxCell id="ley4W7D45iyjQkISpa2F-24" value="SI" style="edgeLabel;html=1;align=center;verticalAlign=middle;resizable=0;points=[];" parent="ley4W7D45iyjQkISpa2F-23" vertex="1" connectable="0">
          <mxGeometry x="-0.0629" y="-2" relative="1" as="geometry">
            <mxPoint as="offset" />
          </mxGeometry>
        </mxCell>
        <mxCell id="ley4W7D45iyjQkISpa2F-26" style="edgeStyle=orthogonalEdgeStyle;rounded=0;orthogonalLoop=1;jettySize=auto;html=1;entryX=0.5;entryY=0;entryDx=0;entryDy=0;" parent="1" source="ley4W7D45iyjQkISpa2F-19" target="ley4W7D45iyjQkISpa2F-25" edge="1">
          <mxGeometry relative="1" as="geometry" />
        </mxCell>
        <mxCell id="ley4W7D45iyjQkISpa2F-27" value="NO" style="edgeLabel;html=1;align=center;verticalAlign=middle;resizable=0;points=[];" parent="ley4W7D45iyjQkISpa2F-26" vertex="1" connectable="0">
          <mxGeometry x="-0.5939" relative="1" as="geometry">
            <mxPoint as="offset" />
          </mxGeometry>
        </mxCell>
        <mxCell id="ley4W7D45iyjQkISpa2F-19" value="antiguedad=1" style="rhombus;whiteSpace=wrap;html=1;" parent="1" vertex="1">
          <mxGeometry x="440" y="650" width="90" height="90" as="geometry" />
        </mxCell>
        <mxCell id="ley4W7D45iyjQkISpa2F-94" style="edgeStyle=orthogonalEdgeStyle;rounded=0;orthogonalLoop=1;jettySize=auto;html=1;entryX=0.5;entryY=0;entryDx=0;entryDy=0;" parent="1" source="ley4W7D45iyjQkISpa2F-22" target="ley4W7D45iyjQkISpa2F-93" edge="1">
          <mxGeometry relative="1" as="geometry">
            <Array as="points">
              <mxPoint x="320" y="1670" />
              <mxPoint x="1150" y="1670" />
              <mxPoint x="1150" y="1810" />
            </Array>
          </mxGeometry>
        </mxCell>
        <mxCell id="ley4W7D45iyjQkISpa2F-22" value="Nombre,&quot; derecho 6 días&quot;" style="shape=document;whiteSpace=wrap;html=1;boundedLbl=1;" parent="1" vertex="1">
          <mxGeometry x="260" y="750" width="120" height="80" as="geometry" />
        </mxCell>
        <mxCell id="ley4W7D45iyjQkISpa2F-29" style="edgeStyle=orthogonalEdgeStyle;rounded=0;orthogonalLoop=1;jettySize=auto;html=1;entryX=0.375;entryY=0;entryDx=0;entryDy=0;entryPerimeter=0;" parent="1" source="ley4W7D45iyjQkISpa2F-25" target="ley4W7D45iyjQkISpa2F-28" edge="1">
          <mxGeometry relative="1" as="geometry" />
        </mxCell>
        <mxCell id="ley4W7D45iyjQkISpa2F-30" value="si" style="edgeLabel;html=1;align=center;verticalAlign=middle;resizable=0;points=[];" parent="ley4W7D45iyjQkISpa2F-29" vertex="1" connectable="0">
          <mxGeometry x="-0.5929" y="3" relative="1" as="geometry">
            <mxPoint as="offset" />
          </mxGeometry>
        </mxCell>
        <mxCell id="ley4W7D45iyjQkISpa2F-32" style="edgeStyle=orthogonalEdgeStyle;rounded=0;orthogonalLoop=1;jettySize=auto;html=1;entryX=0.5;entryY=0;entryDx=0;entryDy=0;" parent="1" source="ley4W7D45iyjQkISpa2F-25" target="ley4W7D45iyjQkISpa2F-31" edge="1">
          <mxGeometry relative="1" as="geometry" />
        </mxCell>
        <mxCell id="ley4W7D45iyjQkISpa2F-33" value="NO" style="edgeLabel;html=1;align=center;verticalAlign=middle;resizable=0;points=[];" parent="ley4W7D45iyjQkISpa2F-32" vertex="1" connectable="0">
          <mxGeometry x="-0.6439" relative="1" as="geometry">
            <mxPoint as="offset" />
          </mxGeometry>
        </mxCell>
        <mxCell id="ley4W7D45iyjQkISpa2F-25" value="antiguedad &amp;gt;= 2&lt;br/&gt;&amp;amp;&amp;amp;&lt;br/&gt;antiguedad &amp;lt;= 6" style="rhombus;whiteSpace=wrap;html=1;" parent="1" vertex="1">
          <mxGeometry x="610" y="740" width="130" height="110" as="geometry" />
        </mxCell>
        <mxCell id="ley4W7D45iyjQkISpa2F-95" style="edgeStyle=orthogonalEdgeStyle;rounded=0;orthogonalLoop=1;jettySize=auto;html=1;entryX=0.5;entryY=0;entryDx=0;entryDy=0;" parent="1" source="ley4W7D45iyjQkISpa2F-28" target="ley4W7D45iyjQkISpa2F-93" edge="1">
          <mxGeometry relative="1" as="geometry">
            <Array as="points">
              <mxPoint x="485" y="1670" />
              <mxPoint x="1150" y="1670" />
            </Array>
          </mxGeometry>
        </mxCell>
        <mxCell id="ley4W7D45iyjQkISpa2F-28" value="Nombre, &quot; derecho 14 días&quot;" style="shape=document;whiteSpace=wrap;html=1;boundedLbl=1;" parent="1" vertex="1">
          <mxGeometry x="425" y="870" width="120" height="80" as="geometry" />
        </mxCell>
        <mxCell id="ley4W7D45iyjQkISpa2F-36" style="edgeStyle=orthogonalEdgeStyle;rounded=0;orthogonalLoop=1;jettySize=auto;html=1;entryX=0.5;entryY=0;entryDx=0;entryDy=0;" parent="1" source="ley4W7D45iyjQkISpa2F-31" target="ley4W7D45iyjQkISpa2F-34" edge="1">
          <mxGeometry relative="1" as="geometry" />
        </mxCell>
        <mxCell id="ley4W7D45iyjQkISpa2F-37" value="SI" style="edgeLabel;html=1;align=center;verticalAlign=middle;resizable=0;points=[];" parent="ley4W7D45iyjQkISpa2F-36" vertex="1" connectable="0">
          <mxGeometry x="-0.2128" y="-2" relative="1" as="geometry">
            <mxPoint as="offset" />
          </mxGeometry>
        </mxCell>
        <mxCell id="ley4W7D45iyjQkISpa2F-38" style="edgeStyle=orthogonalEdgeStyle;rounded=0;orthogonalLoop=1;jettySize=auto;html=1;entryX=0.5;entryY=0;entryDx=0;entryDy=0;" parent="1" source="ley4W7D45iyjQkISpa2F-31" target="ley4W7D45iyjQkISpa2F-35" edge="1">
          <mxGeometry relative="1" as="geometry" />
        </mxCell>
        <mxCell id="ley4W7D45iyjQkISpa2F-39" value="NO" style="edgeLabel;html=1;align=center;verticalAlign=middle;resizable=0;points=[];" parent="ley4W7D45iyjQkISpa2F-38" vertex="1" connectable="0">
          <mxGeometry x="-0.1658" y="-3" relative="1" as="geometry">
            <mxPoint as="offset" />
          </mxGeometry>
        </mxCell>
        <mxCell id="ley4W7D45iyjQkISpa2F-31" value="antiguedad == 7" style="rhombus;whiteSpace=wrap;html=1;" parent="1" vertex="1">
          <mxGeometry x="850" y="840" width="130" height="100" as="geometry" />
        </mxCell>
        <mxCell id="ley4W7D45iyjQkISpa2F-96" style="edgeStyle=orthogonalEdgeStyle;rounded=0;orthogonalLoop=1;jettySize=auto;html=1;entryX=0.5;entryY=0;entryDx=0;entryDy=0;" parent="1" source="ley4W7D45iyjQkISpa2F-34" target="ley4W7D45iyjQkISpa2F-93" edge="1">
          <mxGeometry relative="1" as="geometry">
            <Array as="points">
              <mxPoint x="720" y="1670" />
              <mxPoint x="1150" y="1670" />
            </Array>
          </mxGeometry>
        </mxCell>
        <mxCell id="ley4W7D45iyjQkISpa2F-34" value="Nombre, &quot; derecho 14 días&quot;" style="shape=document;whiteSpace=wrap;html=1;boundedLbl=1;" parent="1" vertex="1">
          <mxGeometry x="660" y="970" width="120" height="80" as="geometry" />
        </mxCell>
        <mxCell id="ley4W7D45iyjQkISpa2F-97" style="edgeStyle=orthogonalEdgeStyle;rounded=0;orthogonalLoop=1;jettySize=auto;html=1;entryX=0.5;entryY=0;entryDx=0;entryDy=0;" parent="1" source="ley4W7D45iyjQkISpa2F-35" target="ley4W7D45iyjQkISpa2F-93" edge="1">
          <mxGeometry relative="1" as="geometry">
            <Array as="points">
              <mxPoint x="1090" y="1680" />
              <mxPoint x="1150" y="1680" />
            </Array>
          </mxGeometry>
        </mxCell>
        <mxCell id="ley4W7D45iyjQkISpa2F-35" value="&quot;Aun no tiene derecho a&lt;br/&gt;vacaciones&quot;" style="shape=document;whiteSpace=wrap;html=1;boundedLbl=1;" parent="1" vertex="1">
          <mxGeometry x="1030" y="970" width="120" height="80" as="geometry" />
        </mxCell>
        <mxCell id="ley4W7D45iyjQkISpa2F-42" style="edgeStyle=orthogonalEdgeStyle;rounded=0;orthogonalLoop=1;jettySize=auto;html=1;" parent="1" source="ley4W7D45iyjQkISpa2F-46" target="ley4W7D45iyjQkISpa2F-47" edge="1">
          <mxGeometry relative="1" as="geometry" />
        </mxCell>
        <mxCell id="ley4W7D45iyjQkISpa2F-43" value="SI" style="edgeLabel;html=1;align=center;verticalAlign=middle;resizable=0;points=[];" parent="ley4W7D45iyjQkISpa2F-42" vertex="1" connectable="0">
          <mxGeometry x="-0.0629" y="-2" relative="1" as="geometry">
            <mxPoint as="offset" />
          </mxGeometry>
        </mxCell>
        <mxCell id="ley4W7D45iyjQkISpa2F-44" style="edgeStyle=orthogonalEdgeStyle;rounded=0;orthogonalLoop=1;jettySize=auto;html=1;entryX=0.5;entryY=0;entryDx=0;entryDy=0;" parent="1" source="ley4W7D45iyjQkISpa2F-46" target="ley4W7D45iyjQkISpa2F-52" edge="1">
          <mxGeometry relative="1" as="geometry" />
        </mxCell>
        <mxCell id="ley4W7D45iyjQkISpa2F-45" value="NO" style="edgeLabel;html=1;align=center;verticalAlign=middle;resizable=0;points=[];" parent="ley4W7D45iyjQkISpa2F-44" vertex="1" connectable="0">
          <mxGeometry x="-0.5939" relative="1" as="geometry">
            <mxPoint as="offset" />
          </mxGeometry>
        </mxCell>
        <mxCell id="ley4W7D45iyjQkISpa2F-46" value="antiguedad=1" style="rhombus;whiteSpace=wrap;html=1;" parent="1" vertex="1">
          <mxGeometry x="1350" y="820" width="90" height="90" as="geometry" />
        </mxCell>
        <mxCell id="ley4W7D45iyjQkISpa2F-98" style="edgeStyle=orthogonalEdgeStyle;rounded=0;orthogonalLoop=1;jettySize=auto;html=1;entryX=0.5;entryY=0;entryDx=0;entryDy=0;" parent="1" source="ley4W7D45iyjQkISpa2F-47" target="ley4W7D45iyjQkISpa2F-93" edge="1">
          <mxGeometry relative="1" as="geometry">
            <Array as="points">
              <mxPoint x="1210" y="1670" />
              <mxPoint x="1150" y="1670" />
            </Array>
          </mxGeometry>
        </mxCell>
        <mxCell id="ley4W7D45iyjQkISpa2F-47" value="Nombre,&quot; derecho 7 días&quot;" style="shape=document;whiteSpace=wrap;html=1;boundedLbl=1;" parent="1" vertex="1">
          <mxGeometry x="1170" y="920" width="120" height="80" as="geometry" />
        </mxCell>
        <mxCell id="ley4W7D45iyjQkISpa2F-48" style="edgeStyle=orthogonalEdgeStyle;rounded=0;orthogonalLoop=1;jettySize=auto;html=1;entryX=0.375;entryY=0;entryDx=0;entryDy=0;entryPerimeter=0;" parent="1" source="ley4W7D45iyjQkISpa2F-52" target="ley4W7D45iyjQkISpa2F-53" edge="1">
          <mxGeometry relative="1" as="geometry" />
        </mxCell>
        <mxCell id="ley4W7D45iyjQkISpa2F-49" value="si" style="edgeLabel;html=1;align=center;verticalAlign=middle;resizable=0;points=[];" parent="ley4W7D45iyjQkISpa2F-48" vertex="1" connectable="0">
          <mxGeometry x="-0.5929" y="3" relative="1" as="geometry">
            <mxPoint as="offset" />
          </mxGeometry>
        </mxCell>
        <mxCell id="ley4W7D45iyjQkISpa2F-50" style="edgeStyle=orthogonalEdgeStyle;rounded=0;orthogonalLoop=1;jettySize=auto;html=1;entryX=0.5;entryY=0;entryDx=0;entryDy=0;" parent="1" source="ley4W7D45iyjQkISpa2F-52" target="ley4W7D45iyjQkISpa2F-58" edge="1">
          <mxGeometry relative="1" as="geometry" />
        </mxCell>
        <mxCell id="ley4W7D45iyjQkISpa2F-51" value="NO" style="edgeLabel;html=1;align=center;verticalAlign=middle;resizable=0;points=[];" parent="ley4W7D45iyjQkISpa2F-50" vertex="1" connectable="0">
          <mxGeometry x="-0.6439" relative="1" as="geometry">
            <mxPoint as="offset" />
          </mxGeometry>
        </mxCell>
        <mxCell id="ley4W7D45iyjQkISpa2F-52" value="antiguedad &amp;gt;= 2&lt;br/&gt;&amp;amp;&amp;amp;&lt;br/&gt;antiguedad &amp;lt;= 6" style="rhombus;whiteSpace=wrap;html=1;" parent="1" vertex="1">
          <mxGeometry x="1520" y="910" width="130" height="110" as="geometry" />
        </mxCell>
        <mxCell id="ley4W7D45iyjQkISpa2F-99" style="edgeStyle=orthogonalEdgeStyle;rounded=0;orthogonalLoop=1;jettySize=auto;html=1;entryX=0.5;entryY=0;entryDx=0;entryDy=0;" parent="1" source="ley4W7D45iyjQkISpa2F-53" target="ley4W7D45iyjQkISpa2F-93" edge="1">
          <mxGeometry relative="1" as="geometry">
            <Array as="points">
              <mxPoint x="1395" y="1670" />
              <mxPoint x="1150" y="1670" />
            </Array>
          </mxGeometry>
        </mxCell>
        <mxCell id="ley4W7D45iyjQkISpa2F-53" value="Nombre, &quot; derecho 15 días&quot;" style="shape=document;whiteSpace=wrap;html=1;boundedLbl=1;" parent="1" vertex="1">
          <mxGeometry x="1335" y="1040" width="120" height="80" as="geometry" />
        </mxCell>
        <mxCell id="ley4W7D45iyjQkISpa2F-54" style="edgeStyle=orthogonalEdgeStyle;rounded=0;orthogonalLoop=1;jettySize=auto;html=1;entryX=0.5;entryY=0;entryDx=0;entryDy=0;" parent="1" source="ley4W7D45iyjQkISpa2F-58" target="ley4W7D45iyjQkISpa2F-59" edge="1">
          <mxGeometry relative="1" as="geometry" />
        </mxCell>
        <mxCell id="ley4W7D45iyjQkISpa2F-55" value="SI" style="edgeLabel;html=1;align=center;verticalAlign=middle;resizable=0;points=[];" parent="ley4W7D45iyjQkISpa2F-54" vertex="1" connectable="0">
          <mxGeometry x="-0.2128" y="-2" relative="1" as="geometry">
            <mxPoint as="offset" />
          </mxGeometry>
        </mxCell>
        <mxCell id="ley4W7D45iyjQkISpa2F-56" style="edgeStyle=orthogonalEdgeStyle;rounded=0;orthogonalLoop=1;jettySize=auto;html=1;entryX=0.5;entryY=0;entryDx=0;entryDy=0;" parent="1" source="ley4W7D45iyjQkISpa2F-58" target="ley4W7D45iyjQkISpa2F-60" edge="1">
          <mxGeometry relative="1" as="geometry" />
        </mxCell>
        <mxCell id="ley4W7D45iyjQkISpa2F-57" value="NO" style="edgeLabel;html=1;align=center;verticalAlign=middle;resizable=0;points=[];" parent="ley4W7D45iyjQkISpa2F-56" vertex="1" connectable="0">
          <mxGeometry x="-0.1658" y="-3" relative="1" as="geometry">
            <mxPoint as="offset" />
          </mxGeometry>
        </mxCell>
        <mxCell id="ley4W7D45iyjQkISpa2F-58" value="antiguedad == 7" style="rhombus;whiteSpace=wrap;html=1;" parent="1" vertex="1">
          <mxGeometry x="1760" y="1010" width="130" height="100" as="geometry" />
        </mxCell>
        <mxCell id="ley4W7D45iyjQkISpa2F-100" style="edgeStyle=orthogonalEdgeStyle;rounded=0;orthogonalLoop=1;jettySize=auto;html=1;entryX=0.5;entryY=0;entryDx=0;entryDy=0;" parent="1" source="ley4W7D45iyjQkISpa2F-59" target="ley4W7D45iyjQkISpa2F-93" edge="1">
          <mxGeometry relative="1" as="geometry">
            <Array as="points">
              <mxPoint x="1630" y="1670" />
              <mxPoint x="1150" y="1670" />
            </Array>
          </mxGeometry>
        </mxCell>
        <mxCell id="ley4W7D45iyjQkISpa2F-101" style="edgeStyle=orthogonalEdgeStyle;rounded=0;orthogonalLoop=1;jettySize=auto;html=1;entryX=0.5;entryY=0;entryDx=0;entryDy=0;" parent="1" source="ley4W7D45iyjQkISpa2F-59" target="ley4W7D45iyjQkISpa2F-93" edge="1">
          <mxGeometry relative="1" as="geometry">
            <Array as="points">
              <mxPoint x="1630" y="1670" />
              <mxPoint x="1150" y="1670" />
            </Array>
          </mxGeometry>
        </mxCell>
        <mxCell id="ley4W7D45iyjQkISpa2F-59" value="Nombre, &quot; derecho 22 días&quot;" style="shape=document;whiteSpace=wrap;html=1;boundedLbl=1;" parent="1" vertex="1">
          <mxGeometry x="1570" y="1140" width="120" height="80" as="geometry" />
        </mxCell>
        <mxCell id="ley4W7D45iyjQkISpa2F-102" style="edgeStyle=orthogonalEdgeStyle;rounded=0;orthogonalLoop=1;jettySize=auto;html=1;" parent="1" source="ley4W7D45iyjQkISpa2F-60" target="ley4W7D45iyjQkISpa2F-93" edge="1">
          <mxGeometry relative="1" as="geometry">
            <Array as="points">
              <mxPoint x="2000" y="1680" />
              <mxPoint x="1150" y="1680" />
            </Array>
          </mxGeometry>
        </mxCell>
        <mxCell id="ley4W7D45iyjQkISpa2F-60" value="&quot;Aun no tiene derecho a vacaciones&quot;" style="shape=document;whiteSpace=wrap;html=1;boundedLbl=1;" parent="1" vertex="1">
          <mxGeometry x="1940" y="1140" width="120" height="80" as="geometry" />
        </mxCell>
        <mxCell id="ley4W7D45iyjQkISpa2F-64" style="edgeStyle=orthogonalEdgeStyle;rounded=0;orthogonalLoop=1;jettySize=auto;html=1;entryX=0.5;entryY=0;entryDx=0;entryDy=0;" parent="1" source="ley4W7D45iyjQkISpa2F-63" target="ley4W7D45iyjQkISpa2F-46" edge="1">
          <mxGeometry relative="1" as="geometry" />
        </mxCell>
        <mxCell id="ley4W7D45iyjQkISpa2F-65" value="SI" style="edgeLabel;html=1;align=center;verticalAlign=middle;resizable=0;points=[];" parent="ley4W7D45iyjQkISpa2F-64" vertex="1" connectable="0">
          <mxGeometry x="-0.564" y="1" relative="1" as="geometry">
            <mxPoint as="offset" />
          </mxGeometry>
        </mxCell>
        <mxCell id="ley4W7D45iyjQkISpa2F-88" style="edgeStyle=orthogonalEdgeStyle;rounded=0;orthogonalLoop=1;jettySize=auto;html=1;entryX=0.5;entryY=0;entryDx=0;entryDy=0;" parent="1" source="ley4W7D45iyjQkISpa2F-63" target="ley4W7D45iyjQkISpa2F-87" edge="1">
          <mxGeometry relative="1" as="geometry" />
        </mxCell>
        <mxCell id="ley4W7D45iyjQkISpa2F-89" value="NO" style="edgeLabel;html=1;align=center;verticalAlign=middle;resizable=0;points=[];" parent="ley4W7D45iyjQkISpa2F-88" vertex="1" connectable="0">
          <mxGeometry x="0.0235" y="-4" relative="1" as="geometry">
            <mxPoint as="offset" />
          </mxGeometry>
        </mxCell>
        <mxCell id="ley4W7D45iyjQkISpa2F-63" value="clave==2" style="rhombus;whiteSpace=wrap;html=1;" parent="1" vertex="1">
          <mxGeometry x="1550" y="680" width="70" height="80" as="geometry" />
        </mxCell>
        <mxCell id="ley4W7D45iyjQkISpa2F-66" style="edgeStyle=orthogonalEdgeStyle;rounded=0;orthogonalLoop=1;jettySize=auto;html=1;" parent="1" source="ley4W7D45iyjQkISpa2F-70" target="ley4W7D45iyjQkISpa2F-71" edge="1">
          <mxGeometry relative="1" as="geometry" />
        </mxCell>
        <mxCell id="ley4W7D45iyjQkISpa2F-67" value="SI" style="edgeLabel;html=1;align=center;verticalAlign=middle;resizable=0;points=[];" parent="ley4W7D45iyjQkISpa2F-66" vertex="1" connectable="0">
          <mxGeometry x="-0.0629" y="-2" relative="1" as="geometry">
            <mxPoint as="offset" />
          </mxGeometry>
        </mxCell>
        <mxCell id="ley4W7D45iyjQkISpa2F-68" style="edgeStyle=orthogonalEdgeStyle;rounded=0;orthogonalLoop=1;jettySize=auto;html=1;entryX=0.5;entryY=0;entryDx=0;entryDy=0;" parent="1" source="ley4W7D45iyjQkISpa2F-70" target="ley4W7D45iyjQkISpa2F-76" edge="1">
          <mxGeometry relative="1" as="geometry" />
        </mxCell>
        <mxCell id="ley4W7D45iyjQkISpa2F-69" value="NO" style="edgeLabel;html=1;align=center;verticalAlign=middle;resizable=0;points=[];" parent="ley4W7D45iyjQkISpa2F-68" vertex="1" connectable="0">
          <mxGeometry x="-0.5939" relative="1" as="geometry">
            <mxPoint as="offset" />
          </mxGeometry>
        </mxCell>
        <mxCell id="ley4W7D45iyjQkISpa2F-70" value="antiguedad=1" style="rhombus;whiteSpace=wrap;html=1;" parent="1" vertex="1">
          <mxGeometry x="2330" y="1010" width="90" height="90" as="geometry" />
        </mxCell>
        <mxCell id="ley4W7D45iyjQkISpa2F-103" style="edgeStyle=orthogonalEdgeStyle;rounded=0;orthogonalLoop=1;jettySize=auto;html=1;entryX=0.5;entryY=0;entryDx=0;entryDy=0;" parent="1" source="ley4W7D45iyjQkISpa2F-71" target="ley4W7D45iyjQkISpa2F-93" edge="1">
          <mxGeometry relative="1" as="geometry">
            <Array as="points">
              <mxPoint x="2210" y="1680" />
              <mxPoint x="1150" y="1680" />
            </Array>
          </mxGeometry>
        </mxCell>
        <mxCell id="ley4W7D45iyjQkISpa2F-71" value="Nombre,&quot; derecho 10 días&quot;" style="shape=document;whiteSpace=wrap;html=1;boundedLbl=1;" parent="1" vertex="1">
          <mxGeometry x="2150" y="1110" width="120" height="80" as="geometry" />
        </mxCell>
        <mxCell id="ley4W7D45iyjQkISpa2F-72" style="edgeStyle=orthogonalEdgeStyle;rounded=0;orthogonalLoop=1;jettySize=auto;html=1;entryX=0.375;entryY=0;entryDx=0;entryDy=0;entryPerimeter=0;" parent="1" source="ley4W7D45iyjQkISpa2F-76" target="ley4W7D45iyjQkISpa2F-77" edge="1">
          <mxGeometry relative="1" as="geometry" />
        </mxCell>
        <mxCell id="ley4W7D45iyjQkISpa2F-73" value="si" style="edgeLabel;html=1;align=center;verticalAlign=middle;resizable=0;points=[];" parent="ley4W7D45iyjQkISpa2F-72" vertex="1" connectable="0">
          <mxGeometry x="-0.5929" y="3" relative="1" as="geometry">
            <mxPoint as="offset" />
          </mxGeometry>
        </mxCell>
        <mxCell id="ley4W7D45iyjQkISpa2F-74" style="edgeStyle=orthogonalEdgeStyle;rounded=0;orthogonalLoop=1;jettySize=auto;html=1;entryX=0.5;entryY=0;entryDx=0;entryDy=0;" parent="1" source="ley4W7D45iyjQkISpa2F-76" target="ley4W7D45iyjQkISpa2F-82" edge="1">
          <mxGeometry relative="1" as="geometry" />
        </mxCell>
        <mxCell id="ley4W7D45iyjQkISpa2F-75" value="NO" style="edgeLabel;html=1;align=center;verticalAlign=middle;resizable=0;points=[];" parent="ley4W7D45iyjQkISpa2F-74" vertex="1" connectable="0">
          <mxGeometry x="-0.6439" relative="1" as="geometry">
            <mxPoint as="offset" />
          </mxGeometry>
        </mxCell>
        <mxCell id="ley4W7D45iyjQkISpa2F-76" value="antiguedad &amp;gt;= 2&lt;br/&gt;&amp;amp;&amp;amp;&lt;br/&gt;antiguedad &amp;lt;= 6" style="rhombus;whiteSpace=wrap;html=1;" parent="1" vertex="1">
          <mxGeometry x="2500" y="1100" width="130" height="110" as="geometry" />
        </mxCell>
        <mxCell id="ley4W7D45iyjQkISpa2F-104" style="edgeStyle=orthogonalEdgeStyle;rounded=0;orthogonalLoop=1;jettySize=auto;html=1;entryX=0.5;entryY=0;entryDx=0;entryDy=0;" parent="1" source="ley4W7D45iyjQkISpa2F-77" target="ley4W7D45iyjQkISpa2F-93" edge="1">
          <mxGeometry relative="1" as="geometry">
            <Array as="points">
              <mxPoint x="2375" y="1670" />
              <mxPoint x="1150" y="1670" />
            </Array>
          </mxGeometry>
        </mxCell>
        <mxCell id="ley4W7D45iyjQkISpa2F-77" value="Nombre, &quot; derecho 20 días&quot;" style="shape=document;whiteSpace=wrap;html=1;boundedLbl=1;" parent="1" vertex="1">
          <mxGeometry x="2315" y="1230" width="120" height="80" as="geometry" />
        </mxCell>
        <mxCell id="ley4W7D45iyjQkISpa2F-78" style="edgeStyle=orthogonalEdgeStyle;rounded=0;orthogonalLoop=1;jettySize=auto;html=1;entryX=0.5;entryY=0;entryDx=0;entryDy=0;" parent="1" source="ley4W7D45iyjQkISpa2F-82" target="ley4W7D45iyjQkISpa2F-83" edge="1">
          <mxGeometry relative="1" as="geometry" />
        </mxCell>
        <mxCell id="ley4W7D45iyjQkISpa2F-79" value="SI" style="edgeLabel;html=1;align=center;verticalAlign=middle;resizable=0;points=[];" parent="ley4W7D45iyjQkISpa2F-78" vertex="1" connectable="0">
          <mxGeometry x="-0.2128" y="-2" relative="1" as="geometry">
            <mxPoint as="offset" />
          </mxGeometry>
        </mxCell>
        <mxCell id="ley4W7D45iyjQkISpa2F-80" style="edgeStyle=orthogonalEdgeStyle;rounded=0;orthogonalLoop=1;jettySize=auto;html=1;entryX=0.5;entryY=0;entryDx=0;entryDy=0;" parent="1" source="ley4W7D45iyjQkISpa2F-82" target="ley4W7D45iyjQkISpa2F-84" edge="1">
          <mxGeometry relative="1" as="geometry" />
        </mxCell>
        <mxCell id="ley4W7D45iyjQkISpa2F-81" value="NO" style="edgeLabel;html=1;align=center;verticalAlign=middle;resizable=0;points=[];" parent="ley4W7D45iyjQkISpa2F-80" vertex="1" connectable="0">
          <mxGeometry x="-0.1658" y="-3" relative="1" as="geometry">
            <mxPoint as="offset" />
          </mxGeometry>
        </mxCell>
        <mxCell id="ley4W7D45iyjQkISpa2F-82" value="antiguedad == 7" style="rhombus;whiteSpace=wrap;html=1;" parent="1" vertex="1">
          <mxGeometry x="2740" y="1200" width="130" height="100" as="geometry" />
        </mxCell>
        <mxCell id="ley4W7D45iyjQkISpa2F-105" style="edgeStyle=orthogonalEdgeStyle;rounded=0;orthogonalLoop=1;jettySize=auto;html=1;" parent="1" source="ley4W7D45iyjQkISpa2F-83" target="ley4W7D45iyjQkISpa2F-93" edge="1">
          <mxGeometry relative="1" as="geometry">
            <Array as="points">
              <mxPoint x="2610" y="1680" />
              <mxPoint x="1150" y="1680" />
            </Array>
          </mxGeometry>
        </mxCell>
        <mxCell id="ley4W7D45iyjQkISpa2F-83" value="Nombre, &quot; derecho 30 días&quot;" style="shape=document;whiteSpace=wrap;html=1;boundedLbl=1;" parent="1" vertex="1">
          <mxGeometry x="2550" y="1330" width="120" height="80" as="geometry" />
        </mxCell>
        <mxCell id="ley4W7D45iyjQkISpa2F-106" style="edgeStyle=orthogonalEdgeStyle;rounded=0;orthogonalLoop=1;jettySize=auto;html=1;" parent="1" source="ley4W7D45iyjQkISpa2F-84" edge="1">
          <mxGeometry relative="1" as="geometry">
            <mxPoint x="1150" y="1830" as="targetPoint" />
            <Array as="points">
              <mxPoint x="2980" y="1680" />
              <mxPoint x="1151" y="1680" />
            </Array>
          </mxGeometry>
        </mxCell>
        <mxCell id="ley4W7D45iyjQkISpa2F-84" value="&quot;Aun no tiene derecho a vacaciones&quot;" style="shape=document;whiteSpace=wrap;html=1;boundedLbl=1;" parent="1" vertex="1">
          <mxGeometry x="2920" y="1330" width="120" height="80" as="geometry" />
        </mxCell>
        <mxCell id="ley4W7D45iyjQkISpa2F-85" style="edgeStyle=orthogonalEdgeStyle;rounded=0;orthogonalLoop=1;jettySize=auto;html=1;entryX=0.5;entryY=0;entryDx=0;entryDy=0;" parent="1" source="ley4W7D45iyjQkISpa2F-87" target="ley4W7D45iyjQkISpa2F-70" edge="1">
          <mxGeometry relative="1" as="geometry" />
        </mxCell>
        <mxCell id="ley4W7D45iyjQkISpa2F-86" value="SI" style="edgeLabel;html=1;align=center;verticalAlign=middle;resizable=0;points=[];" parent="ley4W7D45iyjQkISpa2F-85" vertex="1" connectable="0">
          <mxGeometry x="-0.564" y="1" relative="1" as="geometry">
            <mxPoint as="offset" />
          </mxGeometry>
        </mxCell>
        <mxCell id="ley4W7D45iyjQkISpa2F-91" style="edgeStyle=orthogonalEdgeStyle;rounded=0;orthogonalLoop=1;jettySize=auto;html=1;entryX=0.5;entryY=0;entryDx=0;entryDy=0;" parent="1" source="ley4W7D45iyjQkISpa2F-87" target="ley4W7D45iyjQkISpa2F-90" edge="1">
          <mxGeometry relative="1" as="geometry" />
        </mxCell>
        <mxCell id="ley4W7D45iyjQkISpa2F-92" value="NO" style="edgeLabel;html=1;align=center;verticalAlign=middle;resizable=0;points=[];" parent="ley4W7D45iyjQkISpa2F-91" vertex="1" connectable="0">
          <mxGeometry x="-0.696" y="4" relative="1" as="geometry">
            <mxPoint as="offset" />
          </mxGeometry>
        </mxCell>
        <mxCell id="ley4W7D45iyjQkISpa2F-87" value="clave==2" style="rhombus;whiteSpace=wrap;html=1;" parent="1" vertex="1">
          <mxGeometry x="2530" y="870" width="70" height="80" as="geometry" />
        </mxCell>
        <mxCell id="ley4W7D45iyjQkISpa2F-107" style="edgeStyle=orthogonalEdgeStyle;rounded=0;orthogonalLoop=1;jettySize=auto;html=1;entryX=0.5;entryY=0;entryDx=0;entryDy=0;" parent="1" source="ley4W7D45iyjQkISpa2F-90" target="ley4W7D45iyjQkISpa2F-93" edge="1">
          <mxGeometry relative="1" as="geometry">
            <Array as="points">
              <mxPoint x="2890" y="1680" />
              <mxPoint x="1150" y="1680" />
            </Array>
          </mxGeometry>
        </mxCell>
        <mxCell id="ley4W7D45iyjQkISpa2F-90" value="&quot;Error, la clave de&lt;br/&gt;departamento no existe&quot;" style="shape=document;whiteSpace=wrap;html=1;boundedLbl=1;" parent="1" vertex="1">
          <mxGeometry x="2835" y="1020" width="120" height="80" as="geometry" />
        </mxCell>
        <mxCell id="ley4W7D45iyjQkISpa2F-93" value="FIN" style="ellipse;whiteSpace=wrap;html=1;" parent="1" vertex="1">
          <mxGeometry x="1090" y="1840" width="120" height="80" as="geometry" />
        </mxCell>
      </root>
    </mxGraphModel>
  </diagram>
</mxfile>
